# xmcd
#
# Track frame offsets:
#	150
#	9210
#	32405
#	50733
#	70642
#	89524
#	117229
#	143914
#	149847
#	162258
#	202606
#	217465
#	226972
#	238576
#	254050
#	271297
#
# Disc length: 3916 seconds
#
# Revision: 1
# Processed by: cddbd v1.5.2PL0 Copyright (c) Steve Scherf et al.
# Submitted via: audiograbber 1.83.01
#
DISCID=eb0f4a10
DTITLE=James Brown - Live at Chastain Park, Atlanta 1985
DYEAR=1900
DGENRE=
TTITLE0=Give it up, turn it loose
TTITLE1=It's too funky in here
TTITLE2=Gonna have a funky good time
TTITLE3=Try me
TTITLE4=Get on the good foot
TTITLE5=Get up offa that thing
TTITLE6=Georgia on my mind
TTITLE7=Hot Pants
TTITLE8=I got the feelin'
TTITLE9=It's a man's,man's, man's World
TTITLE10=Cold Swet
TTITLE11=I can't stand myself (When you touch me)
TTITLE12=Papa's got a a brand new bag
TTITLE13=I got you (I feel Good)
TTITLE14=Please, please please
TTITLE15=Jam
EXTD=
EXTT0=
EXTT1=
EXTT2=
EXTT3=
EXTT4=
EXTT5=
EXTT6=
EXTT7=
EXTT8=
EXTT9=
EXTT10=
EXTT11=
EXTT12=
EXTT13=
EXTT14=
EXTT15=
PLAYORDER=
